<mxfile host="app.diagrams.net" agent="Mozilla/5.0 (Windows NT 10.0; Win64; x64) AppleWebKit/537.36 (KHTML, like Gecko) Chrome/131.0.0.0 Safari/537.36" version="25.0.3">
  <diagram name="use case" id="Vkya6XpxikeWGtHIpvci">
    <mxGraphModel grid="0" page="0" gridSize="10" guides="1" tooltips="1" connect="1" arrows="1" fold="1" pageScale="1" pageWidth="827" pageHeight="1169" math="0" shadow="0">
      <root>
        <mxCell id="0" />
        <mxCell id="1" parent="0" />
        <mxCell id="YUMYl6FpGfAwoP9M-giy-14" style="rounded=0;orthogonalLoop=1;jettySize=auto;html=1;endArrow=none;endFill=0;entryX=0.263;entryY=0.904;entryDx=0;entryDy=0;entryPerimeter=0;" edge="1" parent="1" source="YUMYl6FpGfAwoP9M-giy-1" target="YUMYl6FpGfAwoP9M-giy-11">
          <mxGeometry relative="1" as="geometry">
            <mxPoint x="110" y="150" as="sourcePoint" />
            <mxPoint x="163" y="87.00000000000011" as="targetPoint" />
            <Array as="points" />
          </mxGeometry>
        </mxCell>
        <mxCell id="YUMYl6FpGfAwoP9M-giy-1" value="Пользователь" style="shape=umlActor;verticalLabelPosition=bottom;verticalAlign=top;html=1;outlineConnect=0;" vertex="1" parent="1">
          <mxGeometry x="32" y="165" width="30" height="60" as="geometry" />
        </mxCell>
        <mxCell id="YUMYl6FpGfAwoP9M-giy-9" value="Посмотреть отзывы" style="ellipse;whiteSpace=wrap;html=1;" vertex="1" parent="1">
          <mxGeometry x="335" y="-37" width="140" height="50" as="geometry" />
        </mxCell>
        <mxCell id="YUMYl6FpGfAwoP9M-giy-11" value="Посмотреть информацию о рейтинге товара" style="ellipse;whiteSpace=wrap;html=1;" vertex="1" parent="1">
          <mxGeometry x="133" y="-10" width="140" height="60" as="geometry" />
        </mxCell>
        <mxCell id="YUMYl6FpGfAwoP9M-giy-18" value="Создать отзыв на товар" style="ellipse;whiteSpace=wrap;html=1;" vertex="1" parent="1">
          <mxGeometry x="166" y="118" width="140" height="50" as="geometry" />
        </mxCell>
        <mxCell id="YUMYl6FpGfAwoP9M-giy-20" value="" style="endArrow=none;startArrow=none;endFill=0;startFill=0;endSize=8;html=1;verticalAlign=bottom;labelBackgroundColor=none;strokeWidth=1;rounded=0;entryX=0;entryY=0.5;entryDx=0;entryDy=0;" edge="1" parent="1" source="YUMYl6FpGfAwoP9M-giy-1" target="YUMYl6FpGfAwoP9M-giy-18">
          <mxGeometry width="160" relative="1" as="geometry">
            <mxPoint x="78" y="175" as="sourcePoint" />
            <mxPoint x="160.0037655636671" y="192.79612966910008" as="targetPoint" />
          </mxGeometry>
        </mxCell>
        <mxCell id="YUMYl6FpGfAwoP9M-giy-21" value="Оценить товар" style="ellipse;whiteSpace=wrap;html=1;" vertex="1" parent="1">
          <mxGeometry x="435" y="45" width="140" height="30" as="geometry" />
        </mxCell>
        <mxCell id="YUMYl6FpGfAwoP9M-giy-23" value="Прикрепить медиафайлы" style="ellipse;whiteSpace=wrap;html=1;" vertex="1" parent="1">
          <mxGeometry x="443" y="112" width="140" height="30" as="geometry" />
        </mxCell>
        <mxCell id="YUMYl6FpGfAwoP9M-giy-24" value="Написать комментарий" style="ellipse;whiteSpace=wrap;html=1;" vertex="1" parent="1">
          <mxGeometry x="443" y="168" width="140" height="30" as="geometry" />
        </mxCell>
        <mxCell id="YUMYl6FpGfAwoP9M-giy-25" value="&amp;lt;&amp;lt;include&amp;gt;&amp;gt;" style="html=1;verticalAlign=bottom;labelBackgroundColor=none;endArrow=open;endFill=0;dashed=1;rounded=0;exitX=0.929;exitY=0.167;exitDx=0;exitDy=0;exitPerimeter=0;entryX=0;entryY=0.5;entryDx=0;entryDy=0;" edge="1" parent="1" source="YUMYl6FpGfAwoP9M-giy-18" target="YUMYl6FpGfAwoP9M-giy-21">
          <mxGeometry x="0.0044" width="160" relative="1" as="geometry">
            <mxPoint x="285" y="72" as="sourcePoint" />
            <mxPoint x="370" y="70" as="targetPoint" />
            <mxPoint as="offset" />
          </mxGeometry>
        </mxCell>
        <mxCell id="YUMYl6FpGfAwoP9M-giy-28" value="&amp;lt;&amp;lt;extend&amp;gt;&amp;gt;" style="html=1;verticalAlign=bottom;labelBackgroundColor=none;endArrow=open;endFill=0;dashed=1;rounded=0;exitX=0;exitY=0.5;exitDx=0;exitDy=0;entryX=1;entryY=1;entryDx=0;entryDy=0;" edge="1" parent="1" source="YUMYl6FpGfAwoP9M-giy-24" target="YUMYl6FpGfAwoP9M-giy-18">
          <mxGeometry width="160" relative="1" as="geometry">
            <mxPoint x="358" y="239" as="sourcePoint" />
            <mxPoint x="302" y="215" as="targetPoint" />
          </mxGeometry>
        </mxCell>
        <mxCell id="YUMYl6FpGfAwoP9M-giy-29" value="&amp;lt;&amp;lt;extend&amp;gt;&amp;gt;" style="html=1;verticalAlign=bottom;labelBackgroundColor=none;endArrow=open;endFill=0;dashed=1;rounded=0;exitX=0;exitY=0.5;exitDx=0;exitDy=0;entryX=1;entryY=0.5;entryDx=0;entryDy=0;" edge="1" parent="1" source="YUMYl6FpGfAwoP9M-giy-23" target="YUMYl6FpGfAwoP9M-giy-18">
          <mxGeometry width="160" relative="1" as="geometry">
            <mxPoint x="430.5025253169417" y="164.39339828220182" as="sourcePoint" />
            <mxPoint x="289" y="221" as="targetPoint" />
          </mxGeometry>
        </mxCell>
        <mxCell id="YUMYl6FpGfAwoP9M-giy-30" value="Редактировать отзыв" style="ellipse;whiteSpace=wrap;html=1;" vertex="1" parent="1">
          <mxGeometry x="178" y="254" width="140" height="60" as="geometry" />
        </mxCell>
        <mxCell id="YUMYl6FpGfAwoP9M-giy-31" value="Редактировать оценку" style="ellipse;whiteSpace=wrap;html=1;" vertex="1" parent="1">
          <mxGeometry x="456" y="236" width="140" height="40" as="geometry" />
        </mxCell>
        <mxCell id="YUMYl6FpGfAwoP9M-giy-32" value="Редактировать комментарий" style="ellipse;whiteSpace=wrap;html=1;" vertex="1" parent="1">
          <mxGeometry x="458" y="301" width="140" height="40" as="geometry" />
        </mxCell>
        <mxCell id="YUMYl6FpGfAwoP9M-giy-35" value="" style="endArrow=none;startArrow=none;endFill=0;startFill=0;endSize=8;html=1;verticalAlign=bottom;labelBackgroundColor=none;strokeWidth=1;rounded=0;" edge="1" parent="1" source="YUMYl6FpGfAwoP9M-giy-1" target="YUMYl6FpGfAwoP9M-giy-30">
          <mxGeometry width="160" relative="1" as="geometry">
            <mxPoint x="120" y="220" as="sourcePoint" />
            <mxPoint x="160" y="270" as="targetPoint" />
          </mxGeometry>
        </mxCell>
        <mxCell id="2vMgvUg8oF1AUKg65rDo-1" value="Удалить отзыв" style="ellipse;whiteSpace=wrap;html=1;" vertex="1" parent="1">
          <mxGeometry x="166" y="390" width="140" height="60" as="geometry" />
        </mxCell>
        <mxCell id="2vMgvUg8oF1AUKg65rDo-3" value="Редактировать медиафайлы" style="ellipse;whiteSpace=wrap;html=1;" vertex="1" parent="1">
          <mxGeometry x="460" y="373" width="144" height="42" as="geometry" />
        </mxCell>
        <mxCell id="2vMgvUg8oF1AUKg65rDo-7" value="" style="endArrow=none;startArrow=none;endFill=0;startFill=0;endSize=8;html=1;verticalAlign=bottom;labelBackgroundColor=none;strokeWidth=1;rounded=0;entryX=0.5;entryY=0;entryDx=0;entryDy=0;" edge="1" parent="1" source="YUMYl6FpGfAwoP9M-giy-1" target="2vMgvUg8oF1AUKg65rDo-1">
          <mxGeometry width="160" relative="1" as="geometry">
            <mxPoint x="99" y="254" as="sourcePoint" />
            <mxPoint x="201" y="367" as="targetPoint" />
          </mxGeometry>
        </mxCell>
        <mxCell id="2vMgvUg8oF1AUKg65rDo-8" value="&amp;lt;&amp;lt;extend&amp;gt;&amp;gt;" style="html=1;verticalAlign=bottom;labelBackgroundColor=none;endArrow=open;endFill=0;dashed=1;rounded=0;exitX=0;exitY=0.5;exitDx=0;exitDy=0;" edge="1" parent="1" source="YUMYl6FpGfAwoP9M-giy-31" target="YUMYl6FpGfAwoP9M-giy-30">
          <mxGeometry width="160" relative="1" as="geometry">
            <mxPoint x="441" y="215" as="sourcePoint" />
            <mxPoint x="289" y="213" as="targetPoint" />
          </mxGeometry>
        </mxCell>
        <mxCell id="2vMgvUg8oF1AUKg65rDo-9" value="&amp;lt;&amp;lt;extend&amp;gt;&amp;gt;" style="html=1;verticalAlign=bottom;labelBackgroundColor=none;endArrow=open;endFill=0;dashed=1;rounded=0;exitX=0;exitY=0.5;exitDx=0;exitDy=0;entryX=0.96;entryY=0.671;entryDx=0;entryDy=0;entryPerimeter=0;" edge="1" parent="1" source="YUMYl6FpGfAwoP9M-giy-32" target="YUMYl6FpGfAwoP9M-giy-30">
          <mxGeometry width="160" relative="1" as="geometry">
            <mxPoint x="451" y="225" as="sourcePoint" />
            <mxPoint x="299" y="223" as="targetPoint" />
          </mxGeometry>
        </mxCell>
        <mxCell id="2vMgvUg8oF1AUKg65rDo-10" value="&amp;lt;&amp;lt;extend&amp;gt;&amp;gt;" style="html=1;verticalAlign=bottom;labelBackgroundColor=none;endArrow=open;endFill=0;dashed=1;rounded=0;exitX=0.027;exitY=0.235;exitDx=0;exitDy=0;entryX=1;entryY=1;entryDx=0;entryDy=0;exitPerimeter=0;" edge="1" parent="1" source="2vMgvUg8oF1AUKg65rDo-3" target="YUMYl6FpGfAwoP9M-giy-30">
          <mxGeometry width="160" relative="1" as="geometry">
            <mxPoint x="461" y="235" as="sourcePoint" />
            <mxPoint x="309" y="233" as="targetPoint" />
          </mxGeometry>
        </mxCell>
        <mxCell id="arGfxon3yxDQKFXbJPRg-1" value="&amp;lt;&amp;lt;extend&amp;gt;&amp;gt;" style="html=1;verticalAlign=bottom;labelBackgroundColor=none;endArrow=open;endFill=0;dashed=1;rounded=0;exitX=0;exitY=0.5;exitDx=0;exitDy=0;entryX=1.007;entryY=0.383;entryDx=0;entryDy=0;entryPerimeter=0;" edge="1" parent="1" source="YUMYl6FpGfAwoP9M-giy-9" target="YUMYl6FpGfAwoP9M-giy-11">
          <mxGeometry width="160" relative="1" as="geometry">
            <mxPoint x="450" y="129" as="sourcePoint" />
            <mxPoint x="310" y="195" as="targetPoint" />
          </mxGeometry>
        </mxCell>
      </root>
    </mxGraphModel>
  </diagram>
</mxfile>
